<svg width="622" height="124" viewBox="0 0 622 124" fill="none" xmlns="http://www.w3.org/2000/svg">
<g clip-path="url(#clip0_2255_2311)">
<path d="M304.002 44.773V49.1377C300.323 45.7454 295.541 43.5886 290.283 43.5886C278.729 43.5886 269.069 53.5096 269.069 65.7482C269.069 77.9868 278.722 88.405 290.283 88.405C295.541 88.405 300.331 85.8461 304.002 82.4611V87.1913H315.051V44.7803H304.002V44.773ZM291.929 77.4897C285.289 77.4897 279.899 72.467 279.899 65.8213C279.899 59.1756 285.281 53.8606 291.929 53.8606C298.576 53.8606 304.002 59.183 304.002 65.8213C304.002 72.4597 298.568 77.4897 291.929 77.4897Z" fill="black"/>
<path d="M350.269 43.6618C343.117 43.6618 339.234 46.1549 337.143 49.1305V44.7658H326.101V87.1768H337.143V60.9889C337.435 59.6656 339.168 53.846 346.203 53.846C354.115 53.846 354.774 61.0327 354.774 61.0327V87.1695H365.757V57.7355C365.757 57.7355 364.222 43.6472 350.269 43.6472V43.6618Z" fill="black"/>
<path d="M505.582 43.5593C497.385 43.5593 493.451 47.054 491.666 49.9272C489.655 46.4545 486.145 43.5593 480.047 43.5593C473.948 43.5593 470.665 46.4691 468.624 49.1303V44.7656H457.582V87.1766H468.624V58.9928C469.56 56.7629 471.681 53.8532 476.317 53.8532C480.31 53.8532 482.292 55.9076 483.264 57.9108C483.915 59.2487 484.186 60.7255 484.186 62.195V87.1766H494.277V58.4664C495.33 56.3024 497.487 53.8532 501.816 53.8532C505.86 53.8532 507.864 55.9076 508.844 57.9108C509.502 59.2487 509.773 60.7255 509.773 62.195V87.1766H519.981V57.7426C519.981 57.7426 518.555 43.552 505.59 43.552L505.582 43.5593Z" fill="black"/>
<path d="M388.083 55.0084H397.86V44.773H388.083V31.4451L377.26 34.9616V44.773H370.174V55.0084H377.26C377.348 62.0415 377.26 69.5061 377.26 74.4483C377.26 86.3067 387.198 87.184 387.198 87.184H397.962V77.5481C397.962 77.5481 394.935 77.4896 391.681 77.4604C389.684 77.4385 388.083 75.8154 388.083 73.8268V55.0157V55.0084Z" fill="black"/>
<path d="M622 22.957H609.883V90.8176H622V22.957Z" fill="#0078FE"/>
<path d="M588.925 90.8176H601.042L576.34 22.957H562.358L537.656 90.8176H549.773L555.506 75.0624H583.192L588.925 90.8176ZM568.742 38.7122H569.956L578.782 62.9481H559.923L568.749 38.7122H568.742Z" fill="#0078FE"/>
<path d="M261.113 87.1547H250.064V82.6C247.358 86.1824 246.298 88.3976 238.883 88.3976C230.166 88.3976 221.398 81.379 221.398 69.7473V44.7729H232.447V68.7237C232.396 75.3767 235.914 77.4896 240.557 77.4896C244.557 77.4896 250.064 75.3767 250.064 67.8464V44.7729H261.113V87.1547Z" fill="black"/>
<path d="M446.525 87.1547H435.476V82.6C432.77 86.1824 431.71 88.3976 424.295 88.3976C415.578 88.3976 406.81 81.379 406.81 69.7473V44.7729H417.86V68.7237C417.809 75.3767 421.326 77.4896 425.97 77.4896C429.97 77.4896 435.476 75.3767 435.476 67.8464V44.7729H446.525V87.1547Z" fill="black"/>
<path d="M215.014 83.1484L206.897 75.0332C210.466 69.9082 212.557 63.6573 212.557 56.8873C212.557 39.4287 198.553 25.26 181.01 25.26C163.467 25.26 149.544 39.4287 149.544 56.8873C149.544 74.346 163.46 88.5146 181.01 88.5146C187.431 88.5146 193.376 86.6211 198.334 83.3677L206.568 91.5999L215.021 83.1484H215.014ZM181.003 77.2119C169.785 77.2119 160.93 68.1024 160.93 56.8873C160.93 45.6723 169.785 36.5628 181.003 36.5628C192.22 36.5628 201.164 45.6723 201.164 56.8873C201.164 60.477 200.242 63.8401 198.626 66.7718L189.493 57.6404L181.039 66.0919L190.012 75.0624C187.306 76.4223 184.25 77.2119 180.996 77.2119H181.003Z" fill="black"/>
<path d="M123.028 102.91H102.421V123.512H123.028V102.91Z" fill="#0078FE"/>
<path d="M56.3587 0.512329C40.7973 0.512329 26.7058 6.82171 16.5047 17.0132L30.6547 31.16C37.2361 24.5801 46.333 20.5006 56.3513 20.5006C75.7811 20.5006 91.5252 35.8171 91.5252 54.716C91.5252 64.8709 86.9767 73.9877 79.7518 80.2532L96.2053 96.7029C106.406 86.5041 112.71 72.4159 112.71 56.8581C112.725 25.7425 87.4886 0.512329 56.3587 0.512329Z" fill="#0078FE"/>
<path d="M58.8961 94.8459C39.971 94.8459 24.2268 81.8251 20.8411 64.6077C20.2926 62.1073 20.0001 59.5193 20.0001 56.8581C20.0001 46.8347 24.0806 37.7471 30.662 31.1673L16.512 17.0205C6.31082 27.212 0 41.3003 0 56.8581C0 87.9809 25.236 113.204 56.3586 113.204C71.92 113.204 86.0115 106.894 96.2126 96.7029L85.251 85.7438C78.6696 91.4098 69.6969 94.8459 58.8961 94.8459Z" fill="#0078FE"/>
</g>
<defs>
<clipPath id="clip0_2255_2311">
<rect width="622" height="123" fill="#fff" transform="translate(0 0.512329)"/>
</clipPath>
</defs>
</svg>